<svg xmlns="http://www.w3.org/2000/svg" width="30" height="30" viewBox="0 0 30 30" fill="none">
<path d="M21.2502 2.5H8.75024C5.29846 2.5 2.50024 5.29822 2.50024 8.75V21.25C2.50024 24.7018 5.29846 27.5 8.75024 27.5H21.2502C24.702 27.5 27.5002 24.7018 27.5002 21.25V8.75C27.5002 5.29822 24.702 2.5 21.2502 2.5Z" fill="#D3776E"/>
<path d="M19.9996 14.2146C20.1539 15.2549 19.9762 16.3174 19.4918 17.2509C19.0075 18.1844 18.2411 18.9414 17.3017 19.4142C16.3623 19.887 15.2977 20.0516 14.2594 19.8845C13.221 19.7174 12.2618 19.2272 11.5182 18.4835C10.7745 17.7399 10.2843 16.7807 10.1172 15.7424C9.95014 14.704 10.1147 13.6395 10.5875 12.7001C11.0604 11.7607 11.8174 10.9943 12.7509 10.5099C13.6844 10.0255 14.7468 9.84782 15.7871 10.0021C16.8483 10.1594 17.8307 10.6539 18.5893 11.4125C19.3478 12.171 19.8423 13.1534 19.9996 14.2146Z" stroke="#F5EDE5" stroke-width="2" stroke-linecap="round" stroke-linejoin="round"/>
<path d="M21.8748 8.125H21.8873" stroke="#F5EDE5" stroke-width="2" stroke-linecap="round" stroke-linejoin="round"/>
</svg>