<svg xmlns="http://www.w3.org/2000/svg" width="30" height="30" viewBox="0 0 30 30" fill="none">
<path d="M19.9998 10C21.9889 10 23.8965 10.7902 25.3031 12.1967C26.7096 13.6032 27.4998 15.5109 27.4998 17.5V26.25H22.4998V17.5C22.4998 16.837 22.2364 16.2011 21.7675 15.7322C21.2987 15.2634 20.6628 15 19.9998 15C19.3367 15 18.7008 15.2634 18.232 15.7322C17.7631 16.2011 17.4998 16.837 17.4998 17.5V26.25H12.4998V17.5C12.4998 15.5109 13.2899 13.6032 14.6965 12.1967C16.103 10.7902 18.0106 10 19.9998 10Z" fill="#D3776E"/>
<path d="M7.50024 11.25H2.50024V26.25H7.50024V11.25Z" fill="#D3776E"/>
<path d="M5.00024 7.5C6.38096 7.5 7.50024 6.38071 7.50024 5C7.50024 3.61929 6.38096 2.5 5.00024 2.5C3.61953 2.5 2.50024 3.61929 2.50024 5C2.50024 6.38071 3.61953 7.5 5.00024 7.5Z" fill="#D3776E"/>
</svg>