<svg xmlns="http://www.w3.org/2000/svg" width="30" height="30" viewBox="0 0 30 30" fill="none">
<path d="M28.7498 3.74987C27.5527 4.59422 26.2274 5.24001 24.8248 5.66237C24.0719 4.79676 23.0714 4.18324 21.9585 3.90478C20.8457 3.62632 19.6741 3.69637 18.6024 4.10544C17.5306 4.51451 16.6103 5.24288 15.966 6.19202C15.3217 7.14116 14.9844 8.2653 14.9998 9.41237V10.6624C12.803 10.7193 10.6263 10.2321 8.66352 9.24418C6.70068 8.25622 5.01265 6.79817 3.74976 4.99987C3.74976 4.99987 -1.25024 16.2499 9.99975 21.2499C7.42542 22.9973 4.3587 23.8735 1.24976 23.7499C12.4998 29.9999 26.2498 23.7499 26.2498 9.37487C26.2498 9.02487 26.2123 8.67487 26.1498 8.33738C27.4255 7.07924 28.3258 5.49077 28.7498 3.74987Z" fill="#D3776E"/>
</svg>